# xmcd
#
# Track frame offsets: 
#        150
#        14707
#        38819
#        57351
#        79616
#        94708
#        112669
#        130709
#        151042
#        169897
#        190577
#
# Disc length: 2745 seconds
#
# Revision: 0
# Processed by: cddbd v1.5.2PL0 Copyright (c) Steve Scherf et al.
# Submitted via: ExactAudioCopy v1.0b3
#
DISCID=7a0ab70b
DTITLE=Various Artist - AsiaCD301 - Anh Bang - Dong Nhac Luu Vong 2
DYEAR=2011
DGENRE=Blues
TTITLE0=Hop Ca Asia and Ca Doan Ngan Khoi - Phai Len Tieng
TTITLE1=Bang Tam - Dung Noi Yeu Toi
TTITLE2=Dang The Luan - Nuoc Mat Que Huong
TTITLE3=Y Phung - Sau Le Bong 2
TTITLE4=Manh Dinh and My Huyen - Dung Nhu Cong Chua
TTITLE5=Tam Doan - Ve Tham Chon Xua
TTITLE6=Dan Nguyen - Toi Van Co Don
TTITLE7=Ha Thanh Xuan and Tuong Khua - Hen Nguoi Kiep Sau
TTITLE8=Tuong Nguyen and Thuy Duong - Con Yeu Tron Doi
TTITLE9=Ngoc Huyen - Da Lat Xa Nhau
TTITLE10=Hop Ca Asia and Ca Doan Ngan Khoi - Ca Nuoc Dau Tranh
EXTD=
EXTT0=
EXTT1=
EXTT2=
EXTT3=
EXTT4=
EXTT5=
EXTT6=
EXTT7=
EXTT8=
EXTT9=
EXTT10=
PLAYORDER=
